 <svg  version="1.0" xmlns="http://www.w3.org/2000/svg"  width="300.000000pt" height="300.000000pt" viewBox="0 0 300.000000 300.000000"  preserveAspectRatio="xMidYMid meet">  <g transform="translate(0.000000,300.000000) scale(0.100000,-0.100000)" fill="#ffffff" stroke="none"> <path d="M1055 2791 c-48 -20 -60 -48 -64 -149 -2 -54 2 -112 8 -134 21 -70 106 -87 151 -31 17 22 20 41 20 140 0 63 -5 123 -11 135 -8 15 -68 50 -81 47 -2 0 -12 -4 -23 -8z m57 -58 c15 -13 18 -32 18 -110 0 -52 -5 -103 -10 -114 -12 -21 -50 -25 -68 -7 -16 16 -16 220 0 236 17 17 38 15 60 -5z"/> <path d="M935 2245 c-132 -28 -233 -83 -334 -179 -71 -69 -109 -120 -150 -204 -53 -106 -65 -165 -65 -307 0 -116 3 -138 28 -210 50 -144 129 -258 234 -337 l58 -44 -18 -29 c-54 -89 -73 -244 -43 -360 36 -138 138 -259 272 -323 l78 -37 760 0 760 0 68 24 c87 29 203 107 262 174 82 93 145 241 145 336 -1 41 -2 44 -14 28 -8 -10 -21 -47 -30 -83 -53 -211 -217 -378 -422 -429 -54 -14 -160 -15 -790 -13 l-729 3 -68 32 c-80 38 -173 122 -210 191 -66 122 -75 279 -23 396 41 91 39 96 -72 205 -83 81 -105 109 -139 181 -56 115 -77 217 -70 335 17 283 204 518 482 601 44 14 92 18 180 18 103 0 131 -4 200 -27 155 -52 270 -142 362 -285 55 -85 77 -102 136 -102 54 0 160 -31 230 -68 94 -49 192 -142 249 -239 53 -89 73 -103 151 -103 134 0 271 -61 377 -169 83 -84 128 -163 156 -275 9 -36 22 -73 30 -83 12 -16 13 -13 14 28 0 111 -71 261 -176 365 -109 111 -253 173 -408 177 l-67 2 -37 70 c-54 104 -164 210 -272 263 -98 48 -183 72 -255 72 l-50 0 -33 63 c-132 257 -463 406 -757 342z"/> <path d="M42 2204 c-33 -23 -45 -60 -32 -100 9 -27 28 -43 106 -88 105 -62 146 -70 182 -36 12 11 25 32 28 45 12 49 -11 78 -115 138 -104 60 -132 67 -169 41z m149 -76 c79 -45 103 -72 89 -99 -19 -35 -47 -32 -126 11 -126 70 -148 101 -91 128 28 13 44 9 128 -40z"/> <path d="M1965 2169 c-50 -28 -98 -60 -107 -71 -44 -50 -4 -138 63 -138 33 0 173 73 217 113 50 46 12 147 -55 147 -16 0 -69 -23 -118 -51z m153 -33 c5 -25 -12 -41 -90 -86 -87 -50 -110 -56 -132 -35 -36 36 -10 69 104 128 66 33 75 36 94 23 12 -7 22 -21 24 -30z"/> <path d="M971 2115 c-209 -47 -384 -212 -436 -410 -20 -78 -19 -226 1 -296 38 -127 142 -268 242 -326 l44 -26 71 35 c40 20 98 43 129 52 63 18 88 48 88 103 0 49 29 145 67 223 53 108 161 214 275 269 136 66 142 83 65 181 -121 153 -358 238 -546 195z m274 -56 c100 -31 199 -104 273 -203 12 -16 22 -32 22 -35 0 -4 -19 -12 -42 -18 -65 -18 -164 -81 -233 -149 -107 -105 -180 -255 -192 -393 l-5 -66 -72 -17 c-39 -10 -93 -32 -120 -49 -61 -37 -71 -34 -166 61 -104 104 -151 219 -151 370 -1 178 83 337 228 432 147 97 293 118 458 67z"/> <path d="M1603 1696 c-90 -22 -164 -65 -239 -140 -113 -113 -166 -243 -161 -398 1 -42 -3 -72 -11 -80 -7 -7 -46 -15 -88 -19 -200 -19 -337 -166 -337 -360 -1 -64 4 -86 30 -142 39 -81 105 -150 181 -185 l57 -27 700 -3 c454 -2 717 1 748 8 163 35 318 183 362 344 23 86 17 218 -15 299 -46 120 -155 229 -280 279 -45 18 -77 22 -172 23 -72 1 -123 7 -131 14 -8 6 -24 37 -36 69 -26 72 -104 176 -168 224 -124 94 -292 130 -440 94z m240 -41 c158 -41 292 -165 342 -316 9 -27 28 -58 42 -69 24 -18 35 -20 112 -14 195 15 354 -74 438 -244 37 -75 38 -78 38 -191 0 -110 -2 -120 -32 -184 -58 -121 -181 -220 -310 -247 -31 -7 -290 -10 -738 -8 l-690 3 -53 24 c-69 31 -144 113 -168 183 -27 78 -24 170 8 239 52 114 148 177 285 188 119 9 128 20 128 154 1 125 26 209 90 296 43 59 119 123 182 155 89 45 224 58 326 31z"/> <path d="M135 1113 c-126 -72 -145 -97 -124 -160 23 -71 77 -71 200 1 125 73 148 119 90 177 -41 40 -71 37 -166 -18z m126 -3 c28 -16 24 -54 -9 -82 -16 -12 -58 -39 -95 -58 -63 -33 -68 -34 -94 -20 -45 25 -40 46 19 83 49 32 149 87 156 87 2 0 12 -5 23 -10z"/> </g> </svg> 